<svg width="850" height="380" viewBox="0 0 850 380" fill="none" xmlns="http://www.w3.org/2000/svg">
<mask id="path-1-inside-1_17_2" fill="white">
<path d="M51 20C51 8.9543 59.9543 0 71 0H779C790.046 0 799 8.95431 799 20V300H51V20Z"/>
</mask>
<path d="M51 20C51 8.9543 59.9543 0 71 0H779C790.046 0 799 8.95431 799 20V300H51V20Z" fill="url(#paint0_linear_17_2)"/>
<path d="M50 20C50 8.40202 59.402 -1 71 -1H779C790.598 -1 800 8.40202 800 20H798C798 9.50659 789.493 1 779 1H71C60.5066 1 52 9.50659 52 20H50ZM799 300H51H799ZM50 300V20C50 8.40202 59.402 -1 71 -1V1C60.5066 1 52 9.50659 52 20V300H50ZM779 -1C790.598 -1 800 8.40202 800 20V300H798V20C798 9.50659 789.493 1 779 1V-1Z" fill="black" fill-opacity="0.1" mask="url(#path-1-inside-1_17_2)"/>
<rect x="355.105" y="61.1699" width="137" height="50" rx="10" transform="rotate(-3 355.105 61.1699)" fill="#482307"/>
<path d="M378.911 95.3614C377.216 95.4503 375.504 95.2219 373.775 94.6762C372.046 94.1305 370.577 93.3678 369.368 92.3881L371.73 88.4935C372.689 89.2881 373.791 89.9136 375.035 90.37C376.29 90.8153 377.494 91.0078 378.649 90.9473C379.668 90.8938 380.521 90.6457 381.207 90.203C381.904 89.7597 382.235 89.2207 382.202 88.5862C382.189 88.3365 382.125 88.1156 382.011 87.9234C381.906 87.7203 381.73 87.5418 381.482 87.3879C381.244 87.2334 381.013 87.1047 380.789 87.0017C380.574 86.8878 380.256 86.7793 379.833 86.6763C379.41 86.5629 379.067 86.4818 378.803 86.433C378.55 86.3733 378.16 86.2946 377.633 86.197C372.43 85.2285 369.737 83.0174 369.556 79.5638C369.453 77.5873 370.149 75.9549 371.646 74.6664C373.144 73.378 375.166 72.667 377.715 72.5334C379.348 72.4478 380.854 72.6192 382.233 73.0477C383.621 73.4756 384.764 74.0729 385.659 74.8395L383.548 78.7366C382.871 78.1567 382.017 77.7007 380.988 77.3687C379.959 77.0367 378.935 76.8974 377.915 76.9508C376.927 77.0026 376.125 77.2324 375.511 77.6401C374.895 78.0375 374.603 78.5274 374.633 79.11C374.651 79.4532 374.777 79.7596 375.01 80.029C375.243 80.2984 375.568 80.5213 375.984 80.6977C376.41 80.8735 376.84 81.0179 377.274 81.1308C377.718 81.2431 378.224 81.3418 378.791 81.4268C379.181 81.4898 379.544 81.5594 379.882 81.6356C380.219 81.7014 380.684 81.823 381.278 82.0005C381.871 82.1676 382.408 82.3586 382.888 82.5733C383.368 82.7776 383.884 83.0583 384.434 83.4154C384.985 83.7621 385.448 84.1498 385.825 84.5786C386.212 84.9964 386.542 85.5111 386.814 86.1227C387.085 86.7239 387.239 87.3782 387.276 88.0856C387.346 89.4067 387.023 90.6127 386.308 91.7037C385.593 92.7843 384.59 93.6452 383.299 94.2866C382.007 94.9176 380.545 95.2759 378.911 95.3614ZM390.313 94.3728L389.157 72.3249L394.119 72.0648L395.275 94.1127L390.313 94.3728ZM416.136 70.911L422.175 70.5945L423.33 92.6424L418.384 92.9016L417.642 78.7492L412.619 89.4799L409.81 89.6271L403.708 79.4794L404.45 93.6319L399.488 93.8919L398.332 71.8441L404.464 71.5227L410.855 82.109L416.136 70.911ZM436.202 69.8594C438.407 69.7438 440.286 70.3651 441.839 71.7232C443.39 73.0709 444.223 74.8162 444.335 76.9591C444.447 79.102 443.802 80.9299 442.4 82.4429C440.998 83.9454 439.194 84.7545 436.989 84.87L432.136 85.1243L432.505 92.1616L427.543 92.4216L426.387 70.3737L436.202 69.8594ZM436.651 80.2095C437.431 80.1686 438.067 79.864 438.559 79.2959C439.06 78.7167 439.29 78.0267 439.248 77.2257C439.206 76.4143 438.905 75.752 438.346 75.2389C437.798 74.7253 437.133 74.4889 436.353 74.5298L431.594 74.7792L431.892 80.4589L436.651 80.2095ZM452.483 86.4363L461.673 85.9546L461.918 90.6201L447.765 91.3618L446.61 69.3139L451.572 69.0539L452.483 86.4363ZM469.459 85.5466L479.617 85.0142L479.862 89.6797L464.742 90.4721L463.586 68.4242L478.55 67.64L478.795 72.3055L468.793 72.8297L469.001 76.793L477.941 76.3244L478.186 80.9899L469.245 81.4584L469.459 85.5466Z" fill="white"/>
<rect x="348.235" y="121.102" width="156" height="50" rx="10" transform="rotate(3 348.235 121.102)" fill="#E15549"/>
<path d="M375.884 140.169L366.366 139.67L366.147 143.851L374.417 144.285L374.172 148.95L365.902 148.517L365.455 157.052L360.493 156.792L361.649 134.744L376.129 135.503L375.884 140.169ZM385.525 140.126L386.487 140.568L388.202 141.581L386.606 143.969L384.892 142.941L384.161 142.261L384.265 143.268L384.166 145.156L381.295 145.005L381.394 143.117L381.633 142.128L380.804 142.726L378.992 143.57L377.685 141.03L379.5 140.139L380.438 139.86L379.538 139.421L377.823 138.408L379.387 136.018L381.133 137.048L381.864 137.728L381.729 136.72L381.828 134.832L384.699 134.982L384.6 136.87L384.392 137.861L385.221 137.263L387.002 136.417L388.34 138.959L386.526 139.834L385.525 140.126ZM400.387 159.274C398.753 159.188 397.229 158.816 395.814 158.158C394.399 157.489 393.203 156.623 392.226 155.56C391.249 154.497 390.501 153.248 389.982 151.813C389.463 150.367 389.245 148.843 389.329 147.241C389.413 145.639 389.789 144.152 390.455 142.778C391.122 141.395 391.997 140.225 393.08 139.27C394.162 138.315 395.442 137.584 396.919 137.078C398.395 136.571 399.95 136.36 401.583 136.446C403.632 136.553 405.481 137.094 407.131 138.067C408.791 139.03 410.106 140.314 411.075 141.919L406.645 144.347C406.088 143.431 405.345 142.693 404.414 142.133C403.484 141.573 402.457 141.264 401.334 141.205C399.461 141.107 397.862 141.659 396.537 142.862C395.212 144.055 394.5 145.603 394.4 147.507C394.301 149.411 394.847 151.03 396.039 152.365C397.232 153.69 398.764 154.401 400.637 154.499C401.771 154.559 402.824 154.364 403.797 153.914C404.781 153.454 405.597 152.798 406.247 151.946L410.399 154.823C409.267 156.318 407.825 157.463 406.073 158.258C404.331 159.043 402.436 159.381 400.387 159.274ZM426.371 160.245L420.105 152.03L418.155 154.009L417.852 159.798L412.89 159.538L414.045 137.49L419.007 137.75L418.508 147.268L427.215 138.18L433.503 138.51L423.491 148.625L432.831 160.583L426.371 160.245ZM434.423 160.667L435.578 138.619L440.54 138.879L439.385 160.927L434.423 160.667ZM458.906 139.841L463.868 140.101L462.712 162.149L457.688 161.886L449.266 147.926L448.56 161.407L443.598 161.147L444.753 139.099L449.746 139.361L458.199 153.323L458.906 139.841ZM478.478 150.317L489.213 150.88L489.124 152.581C489.012 154.724 488.427 156.633 487.369 158.309C486.321 159.986 484.919 161.268 483.162 162.157C481.405 163.035 479.466 163.418 477.343 163.307C475.721 163.222 474.207 162.851 472.802 162.193C471.397 161.525 470.212 160.659 469.245 159.597C468.279 158.534 467.536 157.286 467.016 155.85C466.508 154.405 466.296 152.881 466.38 151.279C466.464 149.677 466.839 148.19 467.506 146.816C468.173 145.433 469.048 144.263 470.13 143.308C471.213 142.353 472.493 141.622 473.969 141.116C475.445 140.609 477 140.398 478.633 140.484C480.527 140.583 482.254 141.054 483.817 141.898C485.39 142.731 486.646 143.83 487.587 145.193L483.687 147.962C483.103 147.159 482.359 146.515 481.456 146.03C480.554 145.544 479.561 145.273 478.479 145.217C476.576 145.117 474.951 145.673 473.604 146.886C472.268 148.088 471.551 149.641 471.451 151.545C471.351 153.449 471.902 155.074 473.104 156.42C474.307 157.755 475.855 158.473 477.748 158.572C479.132 158.644 480.362 158.354 481.439 157.701C482.517 157.048 483.262 156.154 483.677 155.018L478.247 154.733L478.478 150.317Z" fill="white"/>
<rect x="337" y="195.27" width="174" height="50" rx="10" transform="rotate(-2 337 195.27)" fill="#482307" fill-opacity="0.5"/>
<path d="M360.25 207.388C361.832 207.333 363.33 207.562 364.745 208.075C366.16 208.589 367.379 209.317 368.402 210.261C369.435 211.195 370.262 212.333 370.882 213.677C371.502 215.021 371.839 216.468 371.893 218.019C371.947 219.57 371.712 221.038 371.187 222.422C370.662 223.805 369.917 225.004 368.952 226.017C367.997 227.031 366.832 227.843 365.457 228.453C364.081 229.064 362.602 229.397 361.02 229.453L352.322 229.756L351.552 207.692L360.25 207.388ZM360.732 224.788C362.533 224.725 364.011 224.064 365.166 222.804C366.32 221.544 366.866 220.008 366.803 218.197C366.739 216.386 366.088 214.897 364.849 213.731C363.609 212.555 362.089 211.998 360.288 212.061L356.681 212.187L357.125 224.914L360.732 224.788ZM375.402 228.95L374.631 206.886L379.597 206.712L380.368 228.777L375.402 228.95ZM399.746 228.1L398.237 224.276L389.274 224.589L388.035 228.509L382.726 228.695L390.247 206.34L396.103 206.136L405.181 227.911L399.746 228.1ZM390.722 219.957L396.469 219.756L393.311 211.706L390.722 219.957ZM416.576 214.864L427.319 214.489L427.379 216.191C427.454 218.336 427.037 220.289 426.13 222.051C425.232 223.812 423.947 225.212 422.274 226.25C420.6 227.278 418.702 227.829 416.578 227.903C414.954 227.96 413.413 227.722 411.956 227.189C410.499 226.646 409.243 225.887 408.187 224.913C407.132 223.939 406.283 222.76 405.64 221.375C405.008 219.979 404.664 218.48 404.608 216.877C404.552 215.274 404.796 213.759 405.34 212.333C405.884 210.896 406.654 209.655 407.649 208.609C408.645 207.564 409.856 206.724 411.282 206.091C412.709 205.457 414.239 205.112 415.874 205.055C417.769 204.988 419.531 205.307 421.161 206.011C422.8 206.705 424.148 207.689 425.204 208.966L421.559 212.064C420.908 211.315 420.111 210.738 419.17 210.333C418.228 209.929 417.215 209.745 416.133 209.783C414.228 209.849 412.657 210.545 411.422 211.87C410.196 213.185 409.616 214.795 409.683 216.7C409.749 218.605 410.44 220.175 411.755 221.412C413.069 222.637 414.674 223.217 416.568 223.151C417.953 223.102 419.153 222.706 420.17 221.962C421.186 221.218 421.851 220.262 422.165 219.094L416.73 219.283L416.576 214.864ZM442.58 226.605L437.772 219.221L435.383 219.304L435.646 226.847L430.681 227.02L429.91 204.955L439.483 204.621C441.679 204.544 443.531 205.183 445.037 206.538C446.544 207.892 447.334 209.626 447.408 211.739C447.461 213.27 447.097 214.632 446.315 215.827C445.533 217.011 444.459 217.898 443.094 218.488L448.529 226.397L442.58 226.605ZM435.039 209.451L435.232 214.979L439.729 214.822C440.489 214.795 441.115 214.513 441.607 213.975C442.109 213.425 442.346 212.76 442.319 211.98C442.292 211.189 442.013 210.536 441.485 210.023C440.956 209.51 440.307 209.267 439.536 209.294L435.039 209.451ZM466.3 225.776L464.79 221.952L455.827 222.265L454.588 226.185L449.279 226.371L456.8 204.016L462.656 203.812L471.734 225.586L466.3 225.776ZM457.276 217.633L463.022 217.432L459.864 209.381L457.276 217.633ZM491.139 202.817L497.182 202.606L497.952 224.671L493.002 224.844L492.508 210.68L487.298 221.322L484.487 221.42L478.563 211.167L479.058 225.331L474.092 225.504L473.321 203.439L479.458 203.225L485.663 213.921L491.139 202.817Z" fill="white"/>
<path d="M51 300H799V360C799 371.046 790.046 380 779 380H71C59.9543 380 51 371.046 51 360V300Z" fill="url(#paint1_linear_17_2)"/>
<path d="M51.5 300.5H798.5V360C798.5 370.77 789.77 379.5 779 379.5H71C60.2304 379.5 51.5 370.77 51.5 360V300.5Z" stroke="black" stroke-opacity="0.1"/>
<rect x="78" y="327" width="82" height="25" rx="5" fill="#482307" fill-opacity="0.25"/>
<path d="M94.602 337.214C95.3849 337.214 96.0112 337.449 96.4809 337.919C96.9549 338.384 97.1919 339.007 97.1919 339.785V344H95.497V340.331C95.497 339.882 95.3637 339.525 95.0971 339.258C94.8348 338.987 94.4835 338.852 94.0434 338.852C93.5822 338.852 93.2077 338.992 92.9199 339.271C92.6364 339.546 92.4946 339.91 92.4946 340.363V344H90.8061V337.373H92.4946V338.109C93.0278 337.513 93.7303 337.214 94.602 337.214ZM102.549 337.214C103.154 337.214 103.702 337.367 104.193 337.671C104.688 337.972 105.076 338.389 105.355 338.922C105.634 339.451 105.774 340.039 105.774 340.687C105.774 341.334 105.634 341.924 105.355 342.458C105.076 342.986 104.688 343.403 104.193 343.708C103.702 344.008 103.154 344.159 102.549 344.159C101.678 344.159 100.958 343.841 100.391 343.207V346.469H98.7026V337.373H100.391V338.16C100.954 337.53 101.673 337.214 102.549 337.214ZM102.213 342.521C102.738 342.521 103.171 342.347 103.514 342C103.861 341.649 104.035 341.211 104.035 340.687C104.035 340.162 103.861 339.726 103.514 339.379C103.171 339.028 102.738 338.852 102.213 338.852C101.692 338.852 101.259 339.028 100.912 339.379C100.565 339.73 100.391 340.166 100.391 340.687C100.391 341.207 100.565 341.643 100.912 341.994C101.259 342.345 101.692 342.521 102.213 342.521ZM115.01 337.214C115.759 337.214 116.358 337.439 116.806 337.887C117.259 338.336 117.485 338.935 117.485 339.684V344H115.79V340.191C115.79 339.785 115.672 339.461 115.435 339.22C115.202 338.975 114.889 338.852 114.496 338.852C114.081 338.852 113.744 338.977 113.486 339.227C113.228 339.476 113.099 339.806 113.099 340.217V344H111.411V340.191C111.411 339.789 111.29 339.466 111.049 339.22C110.812 338.975 110.494 338.852 110.097 338.852C109.686 338.852 109.352 338.979 109.094 339.233C108.836 339.483 108.707 339.811 108.707 340.217V344H107.018V337.373H108.707V338.059C109.206 337.496 109.86 337.214 110.668 337.214C111.129 337.214 111.538 337.31 111.893 337.5C112.253 337.686 112.538 337.951 112.75 338.293C113.296 337.574 114.049 337.214 115.01 337.214Z" fill="white"/>
<path d="M126.888 335.031H127.98V344H126.444V336.865L124.844 337.76L124.184 336.522L126.888 335.031ZM130.614 344.102C130.322 344.102 130.075 344.004 129.872 343.81C129.673 343.615 129.573 343.372 129.573 343.08C129.573 342.788 129.673 342.542 129.872 342.343C130.075 342.14 130.322 342.039 130.614 342.039C130.91 342.039 131.158 342.14 131.357 342.343C131.556 342.542 131.655 342.788 131.655 343.08C131.655 343.372 131.556 343.615 131.357 343.81C131.158 344.004 130.91 344.102 130.614 344.102ZM133.82 335.031H134.912V344H133.375V336.865L131.776 337.76L131.116 336.522L133.82 335.031ZM137.546 344.102C137.254 344.102 137.006 344.004 136.803 343.81C136.604 343.615 136.505 343.372 136.505 343.08C136.505 342.788 136.604 342.542 136.803 342.343C137.006 342.14 137.254 342.039 137.546 342.039C137.842 342.039 138.09 342.14 138.289 342.343C138.487 342.542 138.587 342.788 138.587 343.08C138.587 343.372 138.487 343.615 138.289 343.81C138.09 344.004 137.842 344.102 137.546 344.102ZM144.757 343.575C144.228 343.964 143.625 344.159 142.948 344.159C142.271 344.159 141.665 343.964 141.132 343.575C140.603 343.181 140.191 342.631 139.895 341.924C139.598 341.218 139.45 340.414 139.45 339.512C139.45 338.611 139.598 337.807 139.895 337.1C140.191 336.393 140.603 335.845 141.132 335.456C141.665 335.067 142.271 334.872 142.948 334.872C143.625 334.872 144.228 335.067 144.757 335.456C145.29 335.845 145.705 336.393 146.001 337.1C146.297 337.807 146.445 338.611 146.445 339.512C146.445 340.414 146.297 341.218 146.001 341.924C145.705 342.631 145.29 343.181 144.757 343.575ZM141.57 341.785C141.93 342.369 142.389 342.661 142.948 342.661C143.506 342.661 143.963 342.369 144.319 341.785C144.679 341.196 144.858 340.439 144.858 339.512C144.858 338.585 144.679 337.83 144.319 337.246C143.963 336.662 143.506 336.37 142.948 336.37C142.389 336.37 141.93 336.662 141.57 337.246C141.215 337.83 141.037 338.585 141.037 339.512C141.037 340.439 141.215 341.196 141.57 341.785Z" fill="white" fill-opacity="0.75"/>
<rect x="170" y="327" width="145" height="25" rx="5" fill="#482307" fill-opacity="0.25"/>
<path d="M190.798 337.214C191.547 337.214 192.146 337.439 192.594 337.887C193.047 338.336 193.273 338.935 193.273 339.684V344H191.579V340.191C191.579 339.785 191.46 339.461 191.223 339.22C190.99 338.975 190.677 338.852 190.284 338.852C189.869 338.852 189.533 338.977 189.274 339.227C189.016 339.476 188.887 339.806 188.887 340.217V344H187.199V340.191C187.199 339.789 187.078 339.466 186.837 339.22C186.6 338.975 186.283 338.852 185.885 338.852C185.474 338.852 185.14 338.979 184.882 339.233C184.624 339.483 184.495 339.811 184.495 340.217V344H182.806V337.373H184.495V338.059C184.994 337.496 185.648 337.214 186.456 337.214C186.917 337.214 187.326 337.31 187.681 337.5C188.041 337.686 188.326 337.951 188.538 338.293C189.084 337.574 189.837 337.214 190.798 337.214ZM196.377 336.091C196.174 336.294 195.922 336.396 195.622 336.396C195.322 336.396 195.068 336.294 194.86 336.091C194.657 335.888 194.556 335.638 194.556 335.342C194.556 335.046 194.657 334.796 194.86 334.593C195.068 334.39 195.322 334.288 195.622 334.288C195.922 334.288 196.174 334.39 196.377 334.593C196.585 334.796 196.688 335.046 196.688 335.342C196.688 335.638 196.585 335.888 196.377 336.091ZM194.778 344V337.373H196.466V344H194.778ZM201.874 337.214C202.657 337.214 203.284 337.449 203.753 337.919C204.227 338.384 204.464 339.007 204.464 339.785V344H202.77V340.331C202.77 339.882 202.636 339.525 202.37 339.258C202.107 338.987 201.756 338.852 201.316 338.852C200.855 338.852 200.48 338.992 200.192 339.271C199.909 339.546 199.767 339.91 199.767 340.363V344H198.079V337.373H199.767V338.109C200.3 337.513 201.003 337.214 201.874 337.214ZM208.032 342.362H211.136V344H205.664V342.762L208.679 339.011H205.715V337.373H211.047V338.604L208.032 342.362ZM214.037 336.091C213.833 336.294 213.582 336.396 213.281 336.396C212.981 336.396 212.727 336.294 212.52 336.091C212.316 335.888 212.215 335.638 212.215 335.342C212.215 335.046 212.316 334.796 212.52 334.593C212.727 334.39 212.981 334.288 213.281 334.288C213.582 334.288 213.833 334.39 214.037 334.593C214.244 334.796 214.348 335.046 214.348 335.342C214.348 335.638 214.244 335.888 214.037 336.091ZM212.437 344V337.373H214.125V344H212.437ZM219.584 337.214C220.19 337.214 220.738 337.367 221.228 337.671C221.724 337.972 222.111 338.389 222.39 338.922C222.669 339.451 222.809 340.039 222.809 340.687C222.809 341.334 222.669 341.924 222.39 342.458C222.111 342.986 221.724 343.403 221.228 343.708C220.738 344.008 220.19 344.159 219.584 344.159C218.713 344.159 217.993 343.841 217.426 343.207V346.469H215.738V337.373H217.426V338.16C217.989 337.53 218.708 337.214 219.584 337.214ZM219.248 342.521C219.773 342.521 220.207 342.347 220.549 342C220.896 341.649 221.07 341.211 221.07 340.687C221.07 340.162 220.896 339.726 220.549 339.379C220.207 339.028 219.773 338.852 219.248 338.852C218.728 338.852 218.294 339.028 217.947 339.379C217.6 339.73 217.426 340.166 217.426 340.687C217.426 341.207 217.6 341.643 217.947 341.994C218.294 342.345 218.728 342.521 219.248 342.521ZM227.9 337.214C228.505 337.214 229.053 337.367 229.544 337.671C230.039 337.972 230.426 338.389 230.706 338.922C230.985 339.451 231.124 340.039 231.124 340.687C231.124 341.334 230.985 341.924 230.706 342.458C230.426 342.986 230.039 343.403 229.544 343.708C229.053 344.008 228.505 344.159 227.9 344.159C227.028 344.159 226.309 343.841 225.742 343.207V346.469H224.053V337.373H225.742V338.16C226.304 337.53 227.024 337.214 227.9 337.214ZM227.563 342.521C228.088 342.521 228.522 342.347 228.865 342C229.212 341.649 229.385 341.211 229.385 340.687C229.385 340.162 229.212 339.726 228.865 339.379C228.522 339.028 228.088 338.852 227.563 338.852C227.043 338.852 226.609 339.028 226.262 339.379C225.915 339.73 225.742 340.166 225.742 340.687C225.742 341.207 225.915 341.643 226.262 341.994C226.609 342.345 227.043 342.521 227.563 342.521ZM238.97 340.699C238.97 340.911 238.957 341.11 238.932 341.296H233.797C233.915 341.715 234.142 342.047 234.476 342.292C234.81 342.538 235.217 342.661 235.695 342.661C236.08 342.661 236.433 342.584 236.755 342.432C237.076 342.276 237.33 342.079 237.517 341.842L238.646 342.832C238.295 343.251 237.859 343.577 237.339 343.81C236.823 344.042 236.258 344.159 235.644 344.159C234.95 344.159 234.322 344.006 233.759 343.702C233.196 343.397 232.756 342.978 232.438 342.445C232.121 341.907 231.962 341.313 231.962 340.661C231.962 340.018 232.115 339.434 232.419 338.909C232.728 338.38 233.151 337.965 233.689 337.665C234.231 337.365 234.829 337.214 235.485 337.214C236.48 337.214 237.309 337.547 237.974 338.211C238.638 338.871 238.97 339.701 238.97 340.699ZM236.545 339.068C236.241 338.818 235.883 338.693 235.473 338.693C235.062 338.693 234.705 338.818 234.4 339.068C234.095 339.313 233.89 339.643 233.784 340.058H237.167C237.062 339.643 236.854 339.313 236.545 339.068ZM245.172 334.637H246.86V344H245.172V343.207C244.592 343.841 243.873 344.159 243.014 344.159C242.091 344.159 241.321 343.826 240.703 343.162C240.085 342.498 239.776 341.673 239.776 340.687C239.776 339.701 240.085 338.875 240.703 338.211C241.321 337.547 242.091 337.214 243.014 337.214C243.877 337.214 244.596 337.53 245.172 338.16V334.637ZM243.337 342.521C243.862 342.521 244.298 342.345 244.645 341.994C244.996 341.643 245.172 341.207 245.172 340.687C245.172 340.166 244.996 339.73 244.645 339.379C244.298 339.028 243.862 338.852 243.337 338.852C242.817 338.852 242.383 339.028 242.036 339.379C241.689 339.73 241.516 340.166 241.516 340.687C241.516 341.207 241.689 341.643 242.036 341.994C242.383 342.345 242.817 342.521 243.337 342.521ZM253.709 344.159C252.635 344.159 251.704 343.82 250.916 343.143L251.735 342.026C252.298 342.517 252.943 342.762 253.671 342.762C254.018 342.762 254.3 342.707 254.516 342.597C254.736 342.487 254.846 342.335 254.846 342.14C254.846 342.034 254.814 341.941 254.75 341.861C254.691 341.78 254.594 341.711 254.458 341.651C254.323 341.592 254.192 341.543 254.065 341.505C253.942 341.467 253.769 341.423 253.544 341.372C253.392 341.338 253.271 341.311 253.183 341.29C253.094 341.268 252.971 341.237 252.814 341.194C252.662 341.148 252.537 341.105 252.44 341.067C252.347 341.029 252.235 340.979 252.103 340.915C251.972 340.847 251.864 340.78 251.78 340.712C251.699 340.644 251.613 340.562 251.52 340.464C251.431 340.367 251.359 340.263 251.304 340.153C251.253 340.043 251.211 339.916 251.177 339.772C251.143 339.629 251.126 339.474 251.126 339.309C251.126 338.856 251.251 338.469 251.5 338.147C251.75 337.826 252.074 337.591 252.472 337.443C252.874 337.291 253.326 337.214 253.83 337.214C254.808 337.214 255.665 337.504 256.401 338.084L255.582 339.214C255.04 338.808 254.469 338.604 253.868 338.604C253.563 338.604 253.314 338.653 253.119 338.75C252.924 338.848 252.827 338.99 252.827 339.176C252.827 339.282 252.857 339.375 252.916 339.455C252.975 339.531 253.073 339.599 253.208 339.658C253.343 339.713 253.475 339.76 253.602 339.798C253.728 339.832 253.904 339.872 254.128 339.918C254.323 339.961 254.48 339.997 254.598 340.026C254.717 340.056 254.871 340.103 255.061 340.166C255.252 340.229 255.406 340.293 255.525 340.356C255.648 340.42 255.779 340.507 255.918 340.617C256.062 340.722 256.174 340.837 256.255 340.959C256.335 341.082 256.403 341.232 256.458 341.41C256.517 341.588 256.547 341.78 256.547 341.988C256.547 342.441 256.42 342.834 256.166 343.168C255.912 343.503 255.574 343.752 255.15 343.917C254.727 344.078 254.247 344.159 253.709 344.159ZM259.283 336.091C259.08 336.294 258.828 336.396 258.527 336.396C258.227 336.396 257.973 336.294 257.766 336.091C257.562 335.888 257.461 335.638 257.461 335.342C257.461 335.046 257.562 334.796 257.766 334.593C257.973 334.39 258.227 334.288 258.527 334.288C258.828 334.288 259.08 334.39 259.283 334.593C259.49 334.796 259.594 335.046 259.594 335.342C259.594 335.638 259.49 335.888 259.283 336.091ZM257.683 344V337.373H259.372V344H257.683ZM263.04 342.362H266.145V344H260.673V342.762L263.688 339.011H260.724V337.373H266.056V338.604L263.04 342.362ZM273.781 340.699C273.781 340.911 273.768 341.11 273.743 341.296H268.607C268.726 341.715 268.952 342.047 269.287 342.292C269.621 342.538 270.027 342.661 270.505 342.661C270.89 342.661 271.244 342.584 271.565 342.432C271.887 342.276 272.141 342.079 272.327 341.842L273.457 342.832C273.106 343.251 272.67 343.577 272.149 343.81C271.633 344.042 271.068 344.159 270.455 344.159C269.761 344.159 269.132 344.006 268.569 343.702C268.006 343.397 267.566 342.978 267.249 342.445C266.932 341.907 266.773 341.313 266.773 340.661C266.773 340.018 266.925 339.434 267.23 338.909C267.539 338.38 267.962 337.965 268.499 337.665C269.041 337.365 269.64 337.214 270.296 337.214C271.29 337.214 272.12 337.547 272.784 338.211C273.449 338.871 273.781 339.701 273.781 340.699ZM271.356 339.068C271.051 338.818 270.694 338.693 270.283 338.693C269.873 338.693 269.515 338.818 269.21 339.068C268.906 339.313 268.7 339.643 268.595 340.058H271.978C271.872 339.643 271.665 339.313 271.356 339.068Z" fill="white"/>
<path d="M285.446 339.296C285.916 339.508 286.284 339.811 286.551 340.204C286.822 340.598 286.957 341.044 286.957 341.543C286.957 342.305 286.648 342.931 286.03 343.422C285.417 343.913 284.623 344.159 283.65 344.159C283.015 344.159 282.41 344.047 281.834 343.822C281.259 343.598 280.776 343.285 280.387 342.883L281.289 341.753C281.564 342.041 281.902 342.265 282.304 342.426C282.706 342.582 283.121 342.661 283.548 342.661C284.082 342.661 284.517 342.536 284.856 342.286C285.199 342.032 285.37 341.711 285.37 341.321C285.37 340.932 285.205 340.612 284.875 340.363C284.549 340.109 284.132 339.982 283.624 339.982H282.317V338.643H283.624C284.065 338.643 284.429 338.537 284.716 338.325C285.004 338.114 285.148 337.843 285.148 337.513C285.148 337.183 284.991 336.91 284.678 336.694C284.365 336.478 283.963 336.37 283.472 336.37C283.104 336.37 282.746 336.436 282.399 336.567C282.057 336.698 281.773 336.88 281.549 337.113L280.717 335.989C281.068 335.638 281.506 335.365 282.031 335.17C282.556 334.972 283.102 334.872 283.669 334.872C284.57 334.872 285.307 335.101 285.878 335.558C286.449 336.01 286.735 336.588 286.735 337.291C286.735 337.722 286.621 338.114 286.392 338.465C286.164 338.816 285.848 339.093 285.446 339.296ZM292.575 344L290.467 341.556L289.769 342.312V344H288.309V334.637H289.769V340.363L292.511 337.373H294.409L291.496 340.464L294.498 344H292.575ZM299.113 337.214C299.722 337.214 300.276 337.367 300.776 337.671C301.275 337.972 301.667 338.389 301.95 338.922C302.234 339.451 302.375 340.039 302.375 340.687C302.375 341.334 302.234 341.924 301.95 342.458C301.667 342.986 301.275 343.403 300.776 343.708C300.276 344.008 299.722 344.159 299.113 344.159C298.63 344.159 298.19 344.061 297.792 343.867C297.395 343.672 297.056 343.395 296.777 343.035V344H295.317V334.637H296.777V338.332C297.052 337.976 297.388 337.701 297.786 337.506C298.188 337.312 298.63 337.214 299.113 337.214ZM297.361 342.159C297.754 342.553 298.243 342.75 298.827 342.75C299.411 342.75 299.898 342.553 300.287 342.159C300.676 341.761 300.871 341.271 300.871 340.687C300.871 340.103 300.676 339.612 300.287 339.214C299.898 338.816 299.411 338.617 298.827 338.617C298.243 338.617 297.754 338.816 297.361 339.214C296.971 339.612 296.777 340.103 296.777 340.687C296.777 341.271 296.971 341.761 297.361 342.159Z" fill="white" fill-opacity="0.75"/>
<rect x="0.470428" y="125.998" width="169.643" height="50" rx="20" transform="rotate(-20 0.470428 125.998)" fill="#E15549"/>
<rect x="62.2159" y="169.754" width="180" height="50" rx="20" transform="rotate(-20 62.2159 169.754)" fill="#E15549" fill-opacity="0.5"/>
<rect x="686.934" y="50" width="152.718" height="50" rx="20" transform="rotate(20 686.934 50)" fill="#E15549" fill-opacity="0.75"/>
<rect x="677.144" y="113.468" width="160.929" height="50" rx="20" transform="rotate(20 677.144 113.468)" fill="#E15549"/>
<defs>
<linearGradient id="paint0_linear_17_2" x1="425" y1="0" x2="425" y2="804.661" gradientUnits="userSpaceOnUse">
<stop stop-color="#FFDA92" stop-opacity="0.33"/>
<stop offset="1" stop-color="white" stop-opacity="0"/>
</linearGradient>
<linearGradient id="paint1_linear_17_2" x1="425" y1="300" x2="425" y2="514.576" gradientUnits="userSpaceOnUse">
<stop stop-color="#A97C24" stop-opacity="0.15"/>
<stop offset="1" stop-color="white" stop-opacity="0"/>
</linearGradient>
</defs>
</svg>
